<?xml version="1.0" standalone="no"?><!DOCTYPE svg PUBLIC "-//W3C//DTD SVG 1.1//EN" "http://www.w3.org/Graphics/SVG/1.1/DTD/svg11.dtd"><svg t="1631517758232" class="icon" viewBox="0 0 1024 1024" version="1.1" xmlns="http://www.w3.org/2000/svg" p-id="1217" xmlns:xlink="http://www.w3.org/1999/xlink" width="200" height="200"><defs><style type="text/css"></style></defs><path d="M341.178182 625.757091c17.314909 6.237091 29.789091 11.543273 37.469091 15.965091 21.504 12.334545 39.749818 29.090909 54.737454 50.269091 22.714182 32.256 26.996364 47.057455 51.665455 137.216 1.582545 5.911273 4.840727 13.963636 9.774545 24.250182 22.621091 38.027636 54.923636 56.971636 96.814546 56.878545 40.401455 0 72.750545-18.944 97.047272-56.878545 6.050909-10.472727 10.333091-22.155636 12.846546-35.048728a131.584 131.584 0 0 0 0-44.497454l-44.776727-156.253091c-0.791273-2.466909-0.791273-4.282182 0-5.445818a4.282182 4.282182 0 0 1 3.723636-1.861819h136.052364l-0.139637-0.279272h17.687273c52.829091 0 96.023273-41.611636 96.023273-94.440728 0-7.959273-1.582545-15.965091-3.211637-23.970909l-47.848727-305.803636c-9.588364-41.565091-47.988364-71.959273-92.811636-71.959273H170.542545c-31.418182 0-56.878545 25.460364-56.878545 56.878546v398.242909c0 31.418182 25.460364 56.878545 56.878545 56.878545h170.682182v-0.139636z m0-62.836364V170.775273h424.401454c14.429091 0 27.182545 9.588364 30.394182 24.017454 38.167273 203.776 57.250909 310.178909 57.250909 319.255273a32.116364 32.116364 0 0 1-32.023272 32.023273h-55.20291l-0.279272-0.605091h-103.610182c-22.807273 0-40.96 7.819636-54.365091 23.552-20.107636 23.505455-18.897455 44.218182-11.589818 70.516363 16.663273 59.810909 30.766545 111.662545 42.356363 155.415273-0.372364 30.72-14.429091 47.988364-42.356363 51.898182-27.880727 3.909818-46.312727-11.450182-55.296-46.08l-23.831273-82.618182c-27.322182-73.681455-80.663273-123.345455-160.116364-149.131636l-15.685818-6.097455zM170.589091 170.775273H284.392727v398.242909H170.542545V170.775273z" fill="#333333" p-id="1218"></path></svg>