<?xml version="1.0" standalone="no"?><!DOCTYPE svg PUBLIC "-//W3C//DTD SVG 1.1//EN" "http://www.w3.org/Graphics/SVG/1.1/DTD/svg11.dtd"><svg class="icon" width="200px" height="200.00px" viewBox="0 0 1024 1024" version="1.1" xmlns="http://www.w3.org/2000/svg"><path fill="#515151" d="M896.65 167.58H127.53c-33.32 0-60.44 27.13-60.44 60.46v568.2c0 33.33 27.12 60.44 60.44 60.44h769.12c33.33 0 60.45-27.11 60.45-60.44v-568.2c0-33.33-27.12-60.46-60.45-60.46z m-1.64 62.1v433.07L764.46 532.22c-18.96-19-52.05-18.98-70.97-0.02L571.11 654.58 326.45 409.91c-18.95-19-52.06-18.96-70.98-0.02L129.19 536.16V229.68h765.82zM129.19 623.96l161.75-161.74L623.3 794.58H129.19V623.96zM711.1 794.58l-96.09-96.1 113.96-113.95 166.04 166.02v44.03H711.1z"  /><path fill="#515151" d="M650.45 473.62c1.67 0.06 3.33 0.1 4.98 0.1 25.88 0 50.49-9.5 69.76-27.04 20.52-18.66 32.53-44.18 33.84-71.9 1.3-27.71-8.26-54.27-26.92-74.77-18.67-20.52-44.2-32.52-71.91-33.84-27.82-0.99-54.27 8.27-74.76 26.94-20.52 18.66-32.53 44.18-33.83 71.9-1.3 27.69 8.26 54.25 26.92 74.77 18.68 20.52 44.22 32.53 71.92 33.84z m-23.21-134.57c7.75-7.05 17.64-10.87 28.04-10.87 0.67 0 1.33 0.02 2 0.04 11.14 0.53 21.41 5.36 28.91 13.6 7.5 8.25 11.34 18.9 10.81 30.04s-5.36 21.41-13.59 28.9h-0.01c-8.24 7.5-18.71 11.48-30.05 10.83-11.13-0.53-21.4-5.36-28.89-13.6-7.5-8.25-11.35-18.92-10.82-30.06 0.53-11.12 5.35-21.38 13.6-28.88z"  /></svg>